<svg xmlns="http://www.w3.org/2000/svg" width="16" height="17" fill="none" viewBox="0 0 16 17"><path stroke="#2E3514" stroke-linecap="round" stroke-linejoin="round" d="M8 9.833h.667C9.4 9.833 10 9.233 10 8.5V1.833H4c-1 0-1.873.554-2.327 1.367"/><path stroke="#2E3514" stroke-linecap="round" stroke-linejoin="round" d="M1.333 11.833c0 1.107.894 2 2 2H4c0-.733.6-1.333 1.333-1.333.734 0 1.334.6 1.334 1.333h2.666c0-.733.6-1.333 1.334-1.333.733 0 1.333.6 1.333 1.333h.667c1.106 0 2-.893 2-2v-2h-2A.669.669 0 0 1 12 9.167v-2c0-.367.3-.667.667-.667h.86l-1.14-1.993a1.344 1.344 0 0 0-1.16-.674H10V8.5c0 .733-.6 1.333-1.333 1.333H8"/><path stroke="#2E3514" stroke-linecap="round" stroke-linejoin="round" d="M5.333 15.167a1.333 1.333 0 1 0 0-2.667 1.333 1.333 0 0 0 0 2.667ZM10.667 15.167a1.333 1.333 0 1 0 0-2.667 1.333 1.333 0 0 0 0 2.667ZM14.667 8.5v1.333h-2A.669.669 0 0 1 12 9.167v-2c0-.367.3-.667.667-.667h.86l1.14 2ZM1.333 5.833h4M1.333 7.833H4M1.333 9.833h1.334"/></svg>