<svg xmlns="http://www.w3.org/2000/svg" width="200" height="65" fill="none" viewBox="0 0 200 65"><path fill="#D17D2F" d="M182.848 0c3.312 0 6.205.753 8.68 2.259 2.51 1.505 4.444 3.676 5.804 6.513 1.394 2.801 2.091 6.215 2.091 10.242 0 3.922-.714 7.354-2.144 10.295-1.394 2.942-3.346 5.235-5.856 6.88-2.51 1.647-5.385 2.47-8.627 2.47-3.312 0-6.222-.753-8.732-2.259-2.475-1.506-4.41-3.677-5.804-6.513-1.36-2.837-2.039-6.25-2.039-10.243 0-3.921.714-7.353 2.143-10.294 1.43-2.942 3.382-5.236 5.857-6.881C176.73.823 179.606 0 182.848 0Zm-.209.945c-2.266 0-4.235.788-5.909 2.364-1.673 1.576-2.98 3.747-3.921 6.513-.906 2.767-1.36 5.97-1.36 9.612 0 3.712.506 6.951 1.517 9.717 1.045 2.732 2.44 4.85 4.183 6.356 1.777 1.47 3.73 2.206 5.856 2.206 2.266 0 4.235-.788 5.908-2.364 1.674-1.575 2.963-3.746 3.87-6.513.941-2.801 1.411-6.005 1.411-9.612 0-3.747-.522-6.986-1.568-9.717-1.011-2.731-2.388-4.832-4.131-6.303-1.743-1.506-3.695-2.259-5.856-2.259ZM161.922.735v1.05c-1.186.036-2.092.211-2.719.526-.593.315-.994.823-1.203 1.523-.209.7-.314 1.699-.314 2.994v31.358h-1.202L134.523 4.097V31.83c0 1.26.104 2.259.314 2.994a2.55 2.55 0 0 0 1.359 1.523c.697.28 1.726.456 3.085.526v1.05c-.627-.07-1.447-.105-2.457-.105a83.324 83.324 0 0 0-2.876-.052c-.872 0-1.761.017-2.667.052-.871 0-1.603.035-2.196.105v-1.05c1.185-.07 2.074-.245 2.667-.526.627-.315 1.045-.822 1.255-1.523.209-.735.313-1.733.313-2.994V6.303c0-1.296-.104-2.241-.313-2.836-.21-.63-.628-1.05-1.255-1.26-.593-.246-1.482-.386-2.667-.421V.736c.593.034 1.325.07 2.196.104.906.035 1.795.053 2.667.053.767 0 1.499-.018 2.196-.053.697-.035 1.324-.07 1.882-.105l18.458 28.574V6.83c0-1.296-.122-2.294-.366-2.995-.21-.7-.663-1.208-1.36-1.523-.662-.315-1.673-.49-3.033-.525V.736c.628.034 1.447.07 2.458.104 1.046.035 2.004.053 2.876.053.906 0 1.795-.018 2.666-.053.907-.035 1.639-.07 2.197-.105ZM111.864.473l12.758 33.038c.523 1.33 1.116 2.224 1.778 2.679.662.42 1.272.648 1.83.683v1.05a26.266 26.266 0 0 0-2.562-.105 87.656 87.656 0 0 0-3.033-.052c-1.359 0-2.632.017-3.817.052-1.185 0-2.144.035-2.876.105v-1.05c1.778-.07 2.911-.368 3.399-.893.488-.56.384-1.733-.314-3.52l-9.725-26.104.837-.683-9.098 23.741c-.558 1.4-.889 2.591-.994 3.572-.105.945-.017 1.698.261 2.258.314.56.82.963 1.517 1.209.732.245 1.638.385 2.719.42v1.05a43.201 43.201 0 0 0-3.085-.105 87.896 87.896 0 0 0-2.928-.052c-.872 0-1.621.017-2.249.052-.592 0-1.15.035-1.673.105v-1.05c.697-.175 1.412-.578 2.144-1.208.732-.666 1.394-1.786 1.987-3.362L111.027.473h.837Zm6.379 22.323v1.05h-15.582l.523-1.05h15.059Z"/><path fill="#D17D2F" d="M63.266.735c.732.035 1.69.07 2.876.105 1.185.035 2.353.053 3.503.053 1.638 0 3.207-.018 4.706-.053C75.85.805 76.913.788 77.54.788c2.823 0 5.158.403 7.006 1.208 1.882.805 3.277 1.908 4.183 3.309.941 1.366 1.412 2.906 1.412 4.622 0 1.05-.21 2.171-.628 3.362-.418 1.19-1.15 2.311-2.196 3.362-1.01 1.05-2.405 1.925-4.183 2.626-1.778.665-4.026.998-6.745.998h-5.02v-1.05h4.497c2.475 0 4.358-.386 5.647-1.156 1.325-.806 2.214-1.856 2.667-3.152.488-1.33.732-2.801.732-4.412 0-2.766-.662-4.902-1.987-6.408-1.29-1.54-3.52-2.311-6.693-2.311-1.603 0-2.649.297-3.137.893-.488.595-.732 1.803-.732 3.624v26.053c0 1.26.105 2.206.314 2.836.209.63.61 1.05 1.202 1.26.628.21 1.534.35 2.72.42v1.051c-.802-.07-1.813-.105-3.033-.105a129.754 129.754 0 0 0-7.425 0c-1.186 0-2.144.035-2.876.105v-1.05c1.185-.07 2.074-.21 2.667-.42.627-.21 1.045-.63 1.254-1.261.21-.63.314-1.576.314-2.836V6.303c0-1.296-.104-2.241-.314-2.836-.209-.63-.627-1.05-1.254-1.26-.593-.246-1.482-.386-2.667-.421V.736Zm8.314 18.647c1.882.07 3.363.157 4.444.262 1.08.07 1.952.14 2.614.21.698.07 1.36.158 1.987.263 2.336.385 4.01 1.103 5.02 2.154 1.046 1.015 1.813 2.608 2.3 4.78l1.308 5.357c.348 1.54.697 2.661 1.046 3.362.383.665.958.98 1.725.945.593-.035 1.08-.228 1.464-.578.418-.35.854-.822 1.307-1.418l.785.578c-.732 1.086-1.5 1.926-2.301 2.521-.767.56-1.865.84-3.294.84-1.29 0-2.423-.385-3.399-1.155s-1.708-2.276-2.196-4.517l-1.15-5.253c-.314-1.505-.68-2.801-1.098-3.887-.384-1.12-.941-1.995-1.673-2.626-.698-.63-1.743-.945-3.138-.945h-5.647l-.104-.893ZM58.88.735v1.05c-1.184.036-2.09.176-2.718.421-.593.21-.994.63-1.203 1.26-.209.596-.314 1.541-.314 2.837v26.053c0 1.26.105 2.206.314 2.836.21.63.61 1.05 1.203 1.26.627.21 1.534.35 2.719.42v1.051c-.802-.07-1.813-.105-3.033-.105a129.754 129.754 0 0 0-7.425 0c-1.185 0-2.144.035-2.876.105v-1.05c1.186-.07 2.074-.21 2.667-.42.628-.21 1.046-.63 1.255-1.261.21-.63.314-1.576.314-2.836V6.303c0-1.296-.105-2.241-.314-2.836-.21-.63-.627-1.05-1.255-1.26-.593-.246-1.481-.386-2.667-.421V.736c.732.034 1.691.07 2.876.104a129.691 129.691 0 0 0 7.425 0c1.22-.035 2.231-.07 3.033-.105ZM41.15.735v1.05c-1.185.036-2.091.176-2.719.421-.592.21-.993.63-1.202 1.26-.21.596-.314 1.541-.314 2.837v26.052c0 1.261.105 2.207.314 2.837.209.63.61 1.05 1.202 1.26.628.21 1.534.35 2.72.42v1.051c-.802-.07-1.813-.105-3.033-.105a129.754 129.754 0 0 0-7.425 0c-1.185 0-2.144.035-2.876.105v-1.05c1.185-.07 2.074-.21 2.667-.42.627-.21 1.045-.63 1.255-1.261.209-.63.313-1.576.313-2.837V3.467l.21.157L19.45 38.186h-.837L5.438 4.097V31.83c0 1.26.104 2.259.314 2.994a2.55 2.55 0 0 0 1.36 1.523c.696.28 1.725.456 3.084.526v1.05c-.627-.07-1.447-.105-2.457-.105a83.294 83.294 0 0 0-2.876-.052c-.872 0-1.76.017-2.667.052-.871 0-1.603.035-2.196.105v-1.05c1.185-.07 2.074-.245 2.667-.526.627-.315 1.045-.822 1.255-1.523.209-.735.313-1.733.313-2.994V6.303c0-1.296-.104-2.241-.313-2.836-.21-.63-.628-1.05-1.255-1.26C2.074 1.96 1.185 1.82 0 1.785V.736C.593.77 1.325.805 2.196.84c.906.035 1.795.053 2.667.053.767 0 1.55-.018 2.353-.053C8.052.805 8.749.77 9.307.735l11.87 31.41-.89.42L32.053.894h2.458c1.22 0 2.422-.018 3.608-.053 1.22-.035 2.23-.07 3.032-.105ZM184.498 62.793V48.2h8.124v.826h-7.233v6.05h6.798v.826h-6.798v6.064h7.404v.827h-8.295ZM179.391 48.2h.891v9.662c0 .993-.231 1.879-.692 2.658a5 5 0 0 1-1.909 1.838c-.808.447-1.737.67-2.786.67-1.045 0-1.974-.223-2.787-.67a5.037 5.037 0 0 1-1.916-1.845c-.461-.78-.689-1.663-.684-2.651v-9.663h.89v9.613c0 .84.19 1.59.57 2.245a4.199 4.199 0 0 0 1.589 1.553c.675.375 1.454.563 2.338.563.883 0 1.662-.188 2.337-.563a4.145 4.145 0 0 0 1.582-1.553c.385-.656.577-1.404.577-2.245V48.2ZM160.041 58.233h1.026l2.124 2.8.199.27 2.152 2.858h-1.026l-1.767-2.344-.185-.257-2.523-3.328Zm5.986-2.737c0 1.506-.262 2.822-.784 3.948-.523 1.121-1.25 1.993-2.181 2.615-.926.622-1.995.934-3.206.934-1.216 0-2.29-.312-3.221-.934-.926-.627-1.651-1.501-2.173-2.622-.523-1.126-.784-2.44-.784-3.94 0-1.507.261-2.82.784-3.941.527-1.121 1.254-1.993 2.18-2.615.926-.628 1.998-.941 3.214-.941 1.211 0 2.28.311 3.206.934.931.622 1.658 1.496 2.181 2.622.522 1.12.784 2.434.784 3.94Zm-.87 0c0-1.354-.228-2.527-.684-3.52-.451-.993-1.076-1.76-1.874-2.301-.798-.547-1.712-.82-2.743-.82s-1.945.27-2.744.812c-.798.537-1.425 1.304-1.881 2.302-.451.993-.677 2.169-.677 3.527 0 1.345.224 2.516.67 3.513.451.993 1.076 1.763 1.874 2.309.798.546 1.717.82 2.758.82 1.031 0 1.945-.271 2.743-.813.798-.546 1.423-1.316 1.874-2.309.456-.992.684-2.166.684-3.52ZM150.195 48.2v14.593h-.891V48.2h.891ZM135.833 49.026V48.2h10.226v.827h-4.668v13.767h-.89V49.026h-4.668ZM131.695 48.2h.891v9.662c0 .993-.231 1.879-.692 2.658a5 5 0 0 1-1.909 1.838c-.808.447-1.737.67-2.786.67-1.045 0-1.974-.223-2.787-.67a5.037 5.037 0 0 1-1.916-1.845c-.461-.78-.689-1.663-.684-2.651v-9.663h.89v9.613c0 .84.19 1.59.57 2.245a4.199 4.199 0 0 0 1.589 1.553c.675.375 1.454.563 2.338.563.883 0 1.662-.188 2.337-.563a4.145 4.145 0 0 0 1.582-1.553c.385-.656.577-1.404.577-2.245V48.2ZM118.331 55.496c0 1.506-.261 2.822-.784 3.948-.522 1.121-1.249 1.993-2.18 2.615-.927.622-1.996.934-3.207.934-1.216 0-2.29-.312-3.221-.934-.926-.627-1.651-1.501-2.173-2.622-.523-1.126-.784-2.44-.784-3.94 0-1.507.261-2.82.784-3.941.527-1.121 1.254-1.993 2.18-2.615.927-.628 1.998-.941 3.214-.941 1.211 0 2.28.311 3.207.934.931.622 1.658 1.496 2.18 2.622.523 1.12.784 2.434.784 3.94Zm-.869 0c0-1.354-.228-2.527-.685-3.52-.451-.993-1.075-1.76-1.874-2.301-.798-.547-1.712-.82-2.743-.82s-1.945.27-2.743.812c-.798.537-1.425 1.304-1.882 2.302-.451.993-.676 2.169-.676 3.527 0 1.345.223 2.516.669 3.513.452.993 1.076 1.763 1.874 2.309.798.546 1.718.82 2.758.82 1.031 0 1.945-.271 2.743-.813.799-.546 1.423-1.316 1.874-2.309.457-.992.685-2.166.685-3.52ZM93.81 62.793V48.2h4.738c.884 0 1.629.156 2.238.47a3.23 3.23 0 0 1 1.382 1.318c.318.565.477 1.223.477 1.974 0 .589-.095 1.111-.285 1.567-.19.457-.456.834-.798 1.133a2.817 2.817 0 0 1-1.19.613v.086c.504.038.972.214 1.404.527a3.3 3.3 0 0 1 1.04 1.261c.266.532.399 1.152.399 1.86 0 .746-.161 1.404-.484 1.974-.318.565-.796 1.01-1.432 1.333-.637.318-1.426.477-2.366.477h-5.124Zm.89-.827h4.233c1.097 0 1.94-.275 2.529-.826.594-.551.891-1.261.891-2.13 0-.614-.145-1.162-.435-1.647a3.071 3.071 0 0 0-1.189-1.147c-.509-.285-1.098-.428-1.768-.428h-4.26v6.178Zm0-6.99h4.154c.623 0 1.15-.135 1.582-.406.437-.27.77-.634.998-1.09.233-.456.349-.962.349-1.518 0-.903-.28-1.618-.841-2.145-.56-.527-1.358-.79-2.394-.79H94.7v5.95ZM75.664 62.793V48.2h4.496c.922 0 1.715.18 2.38.541a3.766 3.766 0 0 1 1.532 1.504c.356.636.535 1.377.535 2.223 0 .836-.179 1.572-.535 2.209a3.746 3.746 0 0 1-1.532 1.482c-.66.356-1.451.534-2.373.534h-4.026v-.833h4.005c.75 0 1.392-.14 1.924-.42.532-.281.94-.673 1.225-1.176.285-.509.428-1.107.428-1.796 0-.694-.142-1.297-.428-1.81a2.955 2.955 0 0 0-1.232-1.204c-.532-.285-1.174-.428-1.924-.428h-3.584v13.767h-.891Zm5.992-6.613 3.592 6.613h-1.026l-3.57-6.613h1.004ZM63.848 62.793V48.2h8.123v.826h-7.233v6.05h6.798v.826h-6.798v6.064h7.404v.827h-8.294ZM47.988 62.793 43.976 48.2h.926l3.563 13.218h.086L52.056 48.2h1.084l3.505 13.218h.086L60.294 48.2h.919l-4.012 14.593h-1.026L52.634 49.66h-.079l-3.541 13.133h-1.026ZM42.084 55.496c0 1.506-.261 2.822-.784 3.948-.522 1.121-1.25 1.993-2.18 2.615-.927.622-1.995.934-3.207.934-1.216 0-2.29-.312-3.22-.934-.927-.627-1.651-1.501-2.174-2.622-.522-1.126-.784-2.44-.784-3.94 0-1.507.262-2.82.784-3.941.527-1.121 1.254-1.993 2.18-2.615.927-.628 1.998-.941 3.214-.941 1.212 0 2.28.311 3.207.934.93.622 1.658 1.496 2.18 2.622.523 1.12.784 2.434.784 3.94Zm-.87 0c0-1.354-.227-2.527-.683-3.52-.452-.993-1.076-1.76-1.874-2.301-.798-.547-1.713-.82-2.744-.82-1.03 0-1.945.27-2.743.812-.798.537-1.425 1.304-1.881 2.302-.452.993-.677 2.169-.677 3.527 0 1.345.223 2.516.67 3.513.45.993 1.076 1.763 1.874 2.309.798.546 1.717.82 2.757.82 1.031 0 1.946-.271 2.744-.813.798-.546 1.422-1.316 1.874-2.309.456-.992.684-2.166.684-3.52ZM19.757 62.793V48.2h.891v13.766h7.126v.827h-8.017ZM8 62.793V48.2h8.145v.826H8.89v6.05h6.577v.826H8.89v6.891H8Z"/></svg>