<svg width="200" height="65" fill="none" xmlns="http://www.w3.org/2000/svg"><path d="M186.323 63.53V48.25h8.467v.865h-7.539v6.334h7.086v.866h-7.086v6.349h7.717v.865h-8.645ZM180.999 48.25h.929v10.116c0 1.04-.24 1.968-.721 2.783a5.222 5.222 0 0 1-1.99 1.925c-.842.468-1.81.702-2.904.702-1.09 0-2.058-.234-2.904-.702a5.262 5.262 0 0 1-1.998-1.932c-.48-.816-.718-1.741-.713-2.776V48.25h.928v10.065c0 .88.198 1.664.594 2.35a4.384 4.384 0 0 0 1.657 1.627c.703.393 1.515.59 2.436.59s1.733-.197 2.436-.59a4.327 4.327 0 0 0 1.649-1.627c.401-.686.601-1.47.601-2.35V48.25ZM160.831 58.754h1.069l2.214 2.933.208.283 2.243 2.992h-1.07l-1.842-2.455-.193-.268-2.629-3.485Zm6.239-2.865c0 1.577-.273 2.955-.817 4.134-.545 1.173-1.303 2.086-2.273 2.738-.966.651-2.08.977-3.342.977-1.268 0-2.387-.326-3.357-.977-.966-.657-1.721-1.572-2.266-2.746-.544-1.179-.817-2.554-.817-4.126 0-1.577.273-2.952.817-4.126.55-1.173 1.307-2.086 2.273-2.738.965-.656 2.082-.985 3.35-.985 1.262 0 2.376.326 3.342.978.97.651 1.728 1.566 2.273 2.745.544 1.174.817 2.55.817 4.126Zm-.907 0c0-1.417-.237-2.646-.713-3.685-.47-1.04-1.121-1.843-1.953-2.41-.832-.572-1.785-.858-2.859-.858-1.075 0-2.028.283-2.86.85-.832.562-1.485 1.366-1.961 2.41-.47 1.04-.705 2.27-.705 3.693 0 1.408.233 2.634.698 3.679.47 1.04 1.121 1.845 1.953 2.417.832.572 1.79.858 2.875.858 1.074 0 2.027-.284 2.859-.85.832-.573 1.483-1.378 1.953-2.418.476-1.04.713-2.268.713-3.686ZM150.568 48.25v15.28h-.928V48.25h.928ZM135.599 49.115v-.866h10.658v.866h-4.865v14.414h-.929V49.115h-4.864ZM124.293 63.53V48.25h8.467v.865h-7.539v6.334h7.086v.866h-7.086v6.349h7.717v.865h-8.645ZM118.969 48.25h.929v10.116c0 1.04-.241 1.968-.721 2.783a5.229 5.229 0 0 1-1.99 1.925c-.842.468-1.81.702-2.904.702-1.09 0-2.058-.234-2.904-.702a5.262 5.262 0 0 1-1.998-1.932c-.481-.816-.718-1.741-.713-2.776V48.25h.928v10.065c0 .88.198 1.664.594 2.35a4.377 4.377 0 0 0 1.657 1.627c.703.393 1.515.59 2.436.59s1.733-.197 2.436-.59a4.327 4.327 0 0 0 1.649-1.627c.401-.686.601-1.47.601-2.35V48.25ZM95.208 63.53V48.25h4.939c.921 0 1.698.163 2.332.492a3.37 3.37 0 0 1 1.441 1.38c.332.592.497 1.28.497 2.067 0 .616-.099 1.163-.297 1.641a3.16 3.16 0 0 1-.832 1.186 2.932 2.932 0 0 1-1.24.642v.09c.525.04 1.013.223 1.463.552.451.323.812.763 1.085 1.32.277.557.416 1.206.416 1.948 0 .78-.169 1.47-.505 2.066-.332.592-.83 1.057-1.493 1.395-.664.334-1.486.5-2.466.5h-5.34Zm.928-.866h4.412c1.144 0 2.022-.289 2.636-.866.619-.577.929-1.32.929-2.23 0-.642-.151-1.217-.453-1.724a3.209 3.209 0 0 0-1.241-1.201c-.529-.299-1.143-.448-1.841-.448h-4.442v6.469Zm0-7.32h4.33c.649 0 1.198-.141 1.649-.425a2.786 2.786 0 0 0 1.04-1.141 3.465 3.465 0 0 0 .364-1.59c0-.945-.292-1.693-.877-2.245-.584-.552-1.416-.828-2.495-.828h-4.011v6.23ZM76.294 63.53V48.25h4.687c.96 0 1.787.188 2.48.566a3.935 3.935 0 0 1 1.597 1.575c.372.666.557 1.442.557 2.327 0 .876-.185 1.647-.557 2.313a3.912 3.912 0 0 1-1.596 1.552c-.689.373-1.513.56-2.474.56h-4.196v-.873h4.174c.782 0 1.45-.147 2.005-.44a3.09 3.09 0 0 0 1.278-1.231c.297-.533.446-1.16.446-1.88 0-.727-.15-1.359-.446-1.896a3.087 3.087 0 0 0-1.285-1.26c-.555-.3-1.223-.448-2.005-.448h-3.736v14.414h-.929Zm6.247-6.925 3.743 6.924h-1.07l-3.72-6.924h1.047ZM63.978 63.53V48.25h8.467v.865h-7.539v6.334h7.086v.866h-7.086v6.349h7.717v.865h-8.645ZM47.447 63.53l-4.182-15.28h.966l3.713 13.84h.09l3.654-13.84h1.129l3.654 13.84h.09l3.713-13.84h.958L57.05 63.53h-1.07l-3.69-13.751h-.082l-3.692 13.75h-1.07ZM41.294 55.89c0 1.576-.273 2.954-.817 4.133-.545 1.173-1.303 2.086-2.273 2.738-.966.651-2.08.977-3.343.977-1.267 0-2.386-.326-3.357-.977-.965-.657-1.72-1.572-2.265-2.746-.544-1.179-.817-2.554-.817-4.126 0-1.577.273-2.952.817-4.126.55-1.173 1.307-2.086 2.273-2.738.965-.656 2.082-.985 3.35-.985 1.262 0 2.376.326 3.342.978.97.651 1.728 1.566 2.273 2.745.544 1.174.817 2.55.817 4.126Zm-.907 0c0-1.418-.237-2.647-.713-3.686-.47-1.04-1.121-1.843-1.953-2.41-.832-.572-1.785-.858-2.86-.858-1.074 0-2.027.283-2.859.85-.832.562-1.485 1.366-1.96 2.41-.471 1.04-.706 2.27-.706 3.693 0 1.408.232 2.634.698 3.679.47 1.04 1.121 1.845 1.953 2.417.832.572 1.79.858 2.875.858 1.074 0 2.027-.284 2.859-.85.832-.573 1.483-1.378 1.953-2.418.476-1.04.713-2.268.713-3.686ZM18.022 63.53V48.25h.929v14.414h7.427v.865h-8.356ZM5.767 63.53V48.25h8.49v.865H6.696v6.334h6.855v.866H6.696v7.214h-.929ZM182.848 0c3.312 0 6.205.753 8.68 2.259 2.51 1.505 4.444 3.676 5.804 6.513 1.394 2.801 2.091 6.215 2.091 10.242 0 3.922-.714 7.354-2.144 10.295-1.394 2.942-3.346 5.235-5.856 6.88-2.51 1.647-5.385 2.47-8.627 2.47-3.312 0-6.222-.753-8.732-2.259-2.475-1.506-4.41-3.677-5.804-6.513-1.36-2.837-2.039-6.25-2.039-10.243 0-3.921.714-7.353 2.143-10.294 1.43-2.942 3.382-5.236 5.857-6.881C176.73.823 179.606 0 182.848 0Zm-.209.945c-2.266 0-4.235.788-5.909 2.364-1.673 1.576-2.98 3.747-3.921 6.513-.906 2.767-1.36 5.97-1.36 9.612 0 3.712.506 6.951 1.517 9.717 1.045 2.732 2.44 4.85 4.183 6.356 1.777 1.47 3.73 2.206 5.856 2.206 2.266 0 4.235-.788 5.908-2.364 1.674-1.575 2.963-3.746 3.87-6.513.941-2.801 1.411-6.005 1.411-9.612 0-3.747-.522-6.986-1.568-9.717-1.011-2.731-2.388-4.832-4.131-6.303-1.743-1.506-3.695-2.259-5.856-2.259ZM161.922.735v1.05c-1.186.036-2.092.211-2.719.526-.593.315-.994.823-1.203 1.523-.209.7-.314 1.699-.314 2.994v31.358h-1.202L134.523 4.097V31.83c0 1.26.104 2.259.314 2.994a2.55 2.55 0 0 0 1.359 1.523c.697.28 1.726.456 3.085.526v1.05c-.627-.07-1.447-.105-2.457-.105a83.324 83.324 0 0 0-2.876-.052c-.872 0-1.761.017-2.667.052-.871 0-1.603.035-2.196.105v-1.05c1.185-.07 2.074-.245 2.667-.526.627-.315 1.045-.822 1.255-1.523.209-.735.313-1.733.313-2.994V6.303c0-1.296-.104-2.241-.313-2.836-.21-.63-.628-1.05-1.255-1.26-.593-.246-1.482-.386-2.667-.421V.736c.593.034 1.325.07 2.196.104.906.035 1.795.053 2.667.053.767 0 1.499-.018 2.196-.053.697-.035 1.324-.07 1.882-.105l18.458 28.574V6.83c0-1.296-.122-2.294-.366-2.995-.21-.7-.663-1.208-1.36-1.523-.662-.315-1.673-.49-3.033-.525V.736c.628.034 1.447.07 2.458.104 1.046.035 2.004.053 2.876.053.906 0 1.795-.018 2.666-.053.907-.035 1.639-.07 2.197-.105ZM111.864.473l12.758 33.038c.523 1.33 1.116 2.224 1.778 2.679.662.42 1.272.648 1.83.683v1.05a26.266 26.266 0 0 0-2.562-.105 87.656 87.656 0 0 0-3.033-.052c-1.359 0-2.632.017-3.817.052-1.185 0-2.144.035-2.876.105v-1.05c1.778-.07 2.911-.368 3.399-.893.488-.56.384-1.733-.314-3.52l-9.725-26.104.837-.683-9.098 23.741c-.558 1.4-.889 2.591-.994 3.572-.105.945-.017 1.698.261 2.258.314.56.82.963 1.517 1.209.732.245 1.638.385 2.719.42v1.05a43.201 43.201 0 0 0-3.085-.105 87.896 87.896 0 0 0-2.928-.052c-.872 0-1.621.017-2.249.052-.592 0-1.15.035-1.673.105v-1.05c.697-.175 1.412-.578 2.144-1.208.732-.666 1.394-1.786 1.987-3.362L111.027.473h.837Zm6.379 22.323v1.05h-15.582l.523-1.05h15.059Z" fill="#D17D2F"/><path d="M63.266.735c.732.035 1.69.07 2.876.105 1.185.035 2.353.053 3.503.053 1.638 0 3.207-.018 4.706-.053C75.85.805 76.913.788 77.54.788c2.823 0 5.158.403 7.006 1.208 1.882.805 3.277 1.908 4.183 3.309.941 1.366 1.412 2.906 1.412 4.622 0 1.05-.21 2.171-.628 3.362-.418 1.19-1.15 2.311-2.196 3.362-1.01 1.05-2.405 1.925-4.183 2.626-1.778.665-4.026.998-6.745.998h-5.02v-1.05h4.497c2.475 0 4.358-.386 5.647-1.156 1.325-.806 2.214-1.856 2.667-3.152.488-1.33.732-2.801.732-4.412 0-2.766-.662-4.902-1.987-6.408-1.29-1.54-3.52-2.311-6.693-2.311-1.603 0-2.649.297-3.137.893-.488.595-.732 1.803-.732 3.624v26.053c0 1.26.105 2.206.314 2.836.209.63.61 1.05 1.202 1.26.628.21 1.534.35 2.72.42v1.051c-.802-.07-1.813-.105-3.033-.105a129.754 129.754 0 0 0-7.425 0c-1.186 0-2.144.035-2.876.105v-1.05c1.185-.07 2.074-.21 2.667-.42.627-.21 1.045-.63 1.254-1.261.21-.63.314-1.576.314-2.836V6.303c0-1.296-.104-2.241-.314-2.836-.209-.63-.627-1.05-1.254-1.26-.593-.246-1.482-.386-2.667-.421V.736Zm8.314 18.647c1.882.07 3.363.157 4.444.262 1.08.07 1.952.14 2.614.21.698.07 1.36.158 1.987.263 2.336.385 4.01 1.103 5.02 2.154 1.046 1.015 1.813 2.608 2.3 4.78l1.308 5.357c.348 1.54.697 2.661 1.046 3.362.383.665.958.98 1.725.945.593-.035 1.08-.228 1.464-.578.418-.35.854-.822 1.307-1.418l.785.578c-.732 1.086-1.5 1.926-2.301 2.521-.767.56-1.865.84-3.294.84-1.29 0-2.423-.385-3.399-1.155s-1.708-2.276-2.196-4.517l-1.15-5.253c-.314-1.505-.68-2.801-1.098-3.887-.384-1.12-.941-1.995-1.673-2.626-.698-.63-1.743-.945-3.138-.945h-5.647l-.104-.893ZM58.88.735v1.05c-1.184.036-2.09.176-2.718.421-.593.21-.994.63-1.203 1.26-.209.596-.314 1.541-.314 2.837v26.053c0 1.26.105 2.206.314 2.836.21.63.61 1.05 1.203 1.26.627.21 1.534.35 2.719.42v1.051c-.802-.07-1.813-.105-3.033-.105a129.754 129.754 0 0 0-7.425 0c-1.185 0-2.144.035-2.876.105v-1.05c1.186-.07 2.074-.21 2.667-.42.628-.21 1.046-.63 1.255-1.261.21-.63.314-1.576.314-2.836V6.303c0-1.296-.105-2.241-.314-2.836-.21-.63-.627-1.05-1.255-1.26-.593-.246-1.481-.386-2.667-.421V.736c.732.034 1.691.07 2.876.104a129.691 129.691 0 0 0 7.425 0c1.22-.035 2.231-.07 3.033-.105ZM41.15.735v1.05c-1.185.036-2.091.176-2.719.421-.592.21-.993.63-1.202 1.26-.21.596-.314 1.541-.314 2.837v26.052c0 1.261.105 2.207.314 2.837.209.63.61 1.05 1.202 1.26.628.21 1.534.35 2.72.42v1.051c-.802-.07-1.813-.105-3.033-.105a129.754 129.754 0 0 0-7.425 0c-1.185 0-2.144.035-2.876.105v-1.05c1.185-.07 2.074-.21 2.667-.42.627-.21 1.045-.63 1.255-1.261.209-.63.313-1.576.313-2.837V3.467l.21.157L19.45 38.186h-.837L5.438 4.097V31.83c0 1.26.104 2.259.314 2.994a2.55 2.55 0 0 0 1.36 1.523c.696.28 1.725.456 3.084.526v1.05c-.627-.07-1.447-.105-2.457-.105a83.294 83.294 0 0 0-2.876-.052c-.872 0-1.76.017-2.667.052-.871 0-1.603.035-2.196.105v-1.05c1.185-.07 2.074-.245 2.667-.526.627-.315 1.045-.822 1.255-1.523.209-.735.313-1.733.313-2.994V6.303c0-1.296-.104-2.241-.313-2.836-.21-.63-.628-1.05-1.255-1.26C2.074 1.96 1.185 1.82 0 1.785V.736C.593.77 1.325.805 2.196.84c.906.035 1.795.053 2.667.053.767 0 1.55-.018 2.353-.053C8.052.805 8.749.77 9.307.735l11.87 31.41-.89.42L32.053.894h2.458c1.22 0 2.422-.018 3.608-.053 1.22-.035 2.23-.07 3.032-.105Z" fill="#D17D2F"/></svg>